<svg width="22" height="22" viewBox="0 0 22 22" fill="none" xmlns="http://www.w3.org/2000/svg">
<path d="M5.27281 5.27259C6.48197 4.06344 8.44772 4.06344 9.65688 5.27259L12.4853 8.10102L13.8288 6.75752L11.0004 3.92909C9.04876 1.97747 5.88092 1.97747 3.92931 3.92909C1.9777 5.8807 1.9777 9.04854 3.92931 11.0002L6.75774 13.8286L8.10124 12.4851L5.27281 9.65665C4.06366 8.4475 4.06366 6.48174 5.27281 5.27259ZM7.46484 8.87884L13.1217 14.5357L14.5359 13.1215L8.87906 7.46462L7.46484 8.87884ZM18.0714 11.0002L15.243 8.17173L13.8995 9.51523L16.7279 12.3437C17.9371 13.5528 17.9371 15.5186 16.7279 16.7277C15.5188 17.9369 13.553 17.9369 12.3439 16.7277L9.51545 13.8993L8.17195 15.2428L11.0004 18.0712C12.952 20.0228 16.1198 20.0228 18.0714 18.0712C20.0231 16.1196 20.0231 12.9518 18.0714 11.0002Z" fill="black"/>
</svg>
