<svg width="18" height="18" viewBox="0 0 18 18" fill="none" xmlns="http://www.w3.org/2000/svg">
<path d="M3.27281 3.27259C4.48197 2.06344 6.44772 2.06344 7.65688 3.27259L10.4853 6.10102L11.8288 4.75752L9.00038 1.92909C7.04876 -0.0225261 3.88092 -0.0225261 1.92931 1.92909C-0.0223049 3.8807 -0.0223048 7.04854 1.92931 9.00016L4.75774 11.8286L6.10124 10.4851L3.27281 7.65665C2.06366 6.4475 2.06366 4.48174 3.27281 3.27259ZM5.46484 6.87884L11.1217 12.5357L12.5359 11.1215L6.87906 5.46462L5.46484 6.87884ZM16.0714 9.00016L13.243 6.17173L11.8995 7.51523L14.7279 10.3437C15.9371 11.5528 15.9371 13.5186 14.7279 14.7277C13.5188 15.9369 11.553 15.9369 10.3439 14.7277L7.51545 11.8993L6.17195 13.2428L9.00038 16.0712C10.952 18.0228 14.1198 18.0228 16.0714 16.0712C18.0231 14.1196 18.0231 10.9518 16.0714 9.00016Z" fill="black"/>
</svg>
